<?xml version="1.0" encoding="utf-8"?>
<!-- Generator: Adobe Illustrator 17.1.0, SVG Export Plug-In . SVG Version: 6.00 Build 0)  -->
<!DOCTYPE svg PUBLIC "-//W3C//DTD SVG 1.1//EN" "http://www.w3.org/Graphics/SVG/1.1/DTD/svg11.dtd">
<svg version="1.1" id="Слой_1" xmlns="http://www.w3.org/2000/svg" xmlns:xlink="http://www.w3.org/1999/xlink" x="0px" y="0px"
	 viewBox="0 0 100 100" enable-background="new 0 0 100 100" xml:space="preserve">
<path fill="#212121" d="M56.1,77c2.1,0,3.9-1.7,3.9-3.9c0-2.2-1.8-3.9-3.9-3.9c-2.2,0-4,1.8-4,3.9C52.2,75.3,53.9,77,56.1,77
	L56.1,77z M54.1,17.4L54.1,17.4c-1.1,0.5-2.2,1-3.1,1.7c-1,0.6-1.9,1.4-2.7,2.2c-0.8,0.8-1.6,1.8-2.2,2.7l0,0l0,0
	c-0.6,1-1.2,1.9-1.6,3c-0.5,1.1,0,2.4,1.2,3c1.2,0.5,2.4-0.1,3-1.2c0.3-0.8,0.7-1.6,1.2-2.3c0.5-0.7,1.1-1.4,1.7-2
	c0.6-0.6,1.3-1.2,2-1.7c0.7-0.4,1.5-0.9,2.3-1.2c1.2-0.5,1.7-1.8,1.2-3C56.5,17.5,55.2,17,54.1,17.4L54.1,17.4z M76.9,31.8
	L76.9,31.8c-1.2,0-2.2,1-2.2,2.2c0,1-0.1,1.9-0.3,2.7l0,0.2c-0.7,3.4-2.8,6.4-5.7,8.4l-0.1,0.1c-0.7,0.4-1.4,0.8-2.2,1.2
	c-1.2,0.4-1.7,1.8-1.2,2.9c0.5,1.1,1.8,1.7,3,1.2c1-0.5,2-1,2.9-1.6l0.1-0.1c2.9-2,5.2-4.8,6.5-8h0h0c0.4-1,0.8-2.1,1-3.2l0-0.2
	c0.2-1.1,0.3-2.4,0.3-3.6C79.1,32.8,78.1,31.8,76.9,31.8L76.9,31.8z M98,65.7L98,65.7L84.5,52.1c1.6-2,2.9-4.3,3.9-6.7v-0.1
	c1.5-3.5,2.3-7.3,2.3-11.3c0-3.9-0.7-7.7-2.2-11l-0.1-0.3c-1.5-3.6-3.7-6.9-6.4-9.6c-2.7-2.7-6-4.9-9.6-6.4h0
	c-3.5-1.4-7.3-2.3-11.3-2.3c-8.1,0-15.5,3.3-20.9,8.6c-2.8,2.7-4.9,6-6.4,9.6l0,0l0,0c-1.5,3.5-2.3,7.3-2.3,11.3c0,1,0,2,0.1,3h-19
	c-1.8,0-3.2,1.1-3.6,2.8L1.9,61.7c-0.2,0.4-0.2,0.8-0.2,1.2V85c0,2.1,1.7,3.8,3.8,3.8h0.9v4.9c0,1.2,1,2.2,2.3,2.2h10.9
	c1.2,0,2.2-1,2.2-2.2v-4.9H53v4.9c0,1.2,1,2.2,2.2,2.2h11c1.3,0,2.3-1,2.3-2.2v-4.9h0.9c2.1,0,3.8-1.7,3.8-3.8V61.1
	c2.2-1,4.3-2.2,6.2-3.6l13.5,13.5c1.5,1.4,3.8,1.4,5.3,0C99.5,69.5,99.5,67.1,98,65.7L98,65.7z M15.4,44.4L15.4,44.4h18l0,0.1l0,0.1
	l0.1,0.2v0v0.1l0,0.1l0,0l0,0l0,0.1v0.1h0.1l0.1,0.3c2.5,6,7.7,12.1,13.8,15l0.1,0h0.1l0.2,0.2l0.1,0.1h-38L15.4,44.4L15.4,44.4z
	 M17.3,91.4L17.3,91.4h-6.4v-2.6h6.4V91.4L17.3,91.4z M63.9,91.4L63.9,91.4h-6.4v-2.6h6.4V91.4L63.9,91.4z M65.6,81.3L65.6,81.3H9.2
	V65.1h56.4V81.3L65.6,81.3z M81.5,42.5L81.5,42.5L81.5,42.5c-1.6,4-4.5,7.4-8.1,9.9c-6.1,4.1-13.8,4.9-20.7,2.1
	c-2.7-1.1-5.1-2.7-7.2-4.8l-0.2-0.2l-0.1-0.1v0l-0.1-0.1L44.9,49L44.9,49l0,0l-0.1-0.1l-0.1,0l0,0l-0.1-0.1h-0.1v-0.1l-0.4-0.5h-0.1
	l-0.1,0c-1.2-1.5-2.3-3.1-3.1-4.8l0-0.1l0,0L41,43.2v-0.1l-0.1-0.2l-0.1-0.1v-0.1l-0.1-0.1v-0.1v-0.1l-0.1-0.1l0-0.1
	c-0.3-0.7-0.6-1.5-0.8-2.3l-0.1-0.4v0v-0.1v0v-0.1C39.3,37.8,39,36,39,34c0-3,0.6-5.9,1.7-8.4c1.1-2.7,2.8-5.1,4.8-7.2
	c4-4,9.5-6.5,15.6-6.5c3,0,5.9,0.5,8.5,1.6v0.1c2.7,1.1,5.1,2.7,7.1,4.8c2.1,2,3.7,4.5,4.8,7.2l0.1,0.2c1,2.5,1.6,5.3,1.6,8.2
	C83.2,37.1,82.6,39.9,81.5,42.5L81.5,42.5z M18.6,77L18.6,77c2.2,0,4-1.7,4-3.9c0-2.2-1.8-3.9-4-3.9c-2.2,0-3.9,1.8-3.9,3.9
	C14.7,75.3,16.4,77,18.6,77L18.6,77z"/>
</svg>
