<?xml version="1.0" encoding="utf-8"?>
<!-- Generator: Adobe Illustrator 17.1.0, SVG Export Plug-In . SVG Version: 6.00 Build 0)  -->
<!DOCTYPE svg PUBLIC "-//W3C//DTD SVG 1.1//EN" "http://www.w3.org/Graphics/SVG/1.1/DTD/svg11.dtd">
<svg version="1.1" id="Слой_1" xmlns="http://www.w3.org/2000/svg" xmlns:xlink="http://www.w3.org/1999/xlink" x="0px" y="0px"
	 viewBox="0 0 100 100" enable-background="new 0 0 100 100" xml:space="preserve">
<path fill="#585551" d="M23.4,4.3L38,23.2l0.2,0.3c0.7,0.9,1.2,1.9,1.5,3c0.3,1.2,0.4,2.4,0.2,3.7c-0.2,1.2-0.5,2.4-1.2,3.5
	l-0.2,0.2c-0.6,0.9-1.4,1.8-2.4,2.4l-0.2,0.2l-7.1,5.1c-0.5,1.1-1,3.3,0.9,6.1c3.1,4.5,6.6,8.7,10.5,12.5v0v0
	c3.9,3.9,8,7.4,12.5,10.5c2.8,1.9,5.1,1.4,6.1,1l5.3-7.3h0c0.8-1.1,1.7-1.9,2.7-2.5c1.1-0.7,2.3-1.1,3.5-1.2h0.1
	c1.2-0.2,2.5-0.1,3.6,0.2l0.2,0.1c1.1,0.3,2.1,0.9,3.1,1.6l18.8,14.6l0.3,0.3c1,0.8,1.7,1.7,2.3,2.8l0,0c0.6,1.2,0.9,2.5,1,3.9
	c0.1,1.4-0.1,2.7-0.6,3.9v0c-0.5,1.2-1.3,2.3-2.3,3.3c-1.2,1.2-2.7,2.3-4.5,3.4l-0.2,0.1c-1.7,1-3.8,2-6.2,2.8
	c-10.3,3.4-21.4,2.8-32-0.7c-11.2-3.7-21.9-10.7-30.7-19.6C14.5,68.5,7.4,57.7,3.7,46.5C0.2,36-0.4,24.9,3,14.6
	c0.8-2.5,1.8-4.6,2.9-6.4l0.1,0H5.9C7,6.4,8.1,4.9,9.3,3.7c0.9-1.1,2.1-1.8,3.3-2.3l0.3-0.1c1.2-0.4,2.4-0.6,3.6-0.5
	c1.4,0.1,2.6,0.4,3.8,1l0.2,0.1L23.4,4.3L23.4,4.3z M32,27.8L32,27.8L17.4,9h0c-0.1-0.2-0.3-0.4-0.4-0.4l-0.1-0.1
	c-0.2-0.1-0.4-0.1-0.7-0.1c-0.2,0-0.4,0-0.6,0.1l-0.1,0c-0.2,0.1-0.4,0.3-0.6,0.5c-0.8,0.8-1.6,1.9-2.4,3.2
	c-0.8,1.3-1.6,2.9-2.2,4.8C7.3,25.6,7.9,35,10.9,44.1c3.3,10.1,9.7,19.7,17.7,27.8c8.1,8.1,17.7,14.4,27.7,17.7
	c9.1,3,18.5,3.6,27.2,0.8c1.8-0.7,3.3-1.4,4.7-2.1l0.1-0.1c1.4-0.8,2.4-1.6,3.3-2.5c0.2-0.1,0.3-0.3,0.4-0.5l0,0v-0.1
	c0.1-0.2,0.2-0.4,0.1-0.7c0-0.3-0.1-0.5-0.2-0.7v0c-0.1-0.1-0.2-0.2-0.3-0.4l-0.2-0.2L72.7,68.5v0c-0.2-0.1-0.4-0.2-0.5-0.3h-0.1
	c-0.2-0.1-0.4-0.1-0.7-0.1h-0.1c-0.3,0.1-0.5,0.2-0.7,0.3v-0.1v0.1c-0.2,0.1-0.3,0.2-0.5,0.4v-0.1v0.1l-5.7,7.9
	c-0.4,0.5-0.8,0.9-1.2,1.1c-0.1,0.1-6.8,4.8-14.9-0.9c-4.9-3.4-9.5-7.2-13.6-11.3h0c-4.1-4.1-7.9-8.6-11.3-13.5
	c-5.7-8.2-0.9-14.9-0.9-14.9c0.3-0.4,0.6-0.8,1-1.1l7.8-5.7l0.2-0.2c0.2-0.1,0.3-0.2,0.4-0.4l0.1-0.1c0.1-0.2,0.1-0.4,0.2-0.6
	c0.1-0.2,0-0.5,0-0.7c0-0.1-0.1-0.3-0.2-0.4L32,27.8L32,27.8z M23.4,4.4L23.4,4.4L23.4,4.4L23.4,4.4L23.4,4.4z M23.4,4.3L23.4,4.3
	L23.4,4.3L23.4,4.3L23.4,4.3z"/>
</svg>
