<?xml version="1.0" encoding="utf-8"?>
<!-- Generator: Adobe Illustrator 17.1.0, SVG Export Plug-In . SVG Version: 6.00 Build 0)  -->
<!DOCTYPE svg PUBLIC "-//W3C//DTD SVG 1.1//EN" "http://www.w3.org/Graphics/SVG/1.1/DTD/svg11.dtd">
<svg version="1.1" id="Слой_1" xmlns="http://www.w3.org/2000/svg" xmlns:xlink="http://www.w3.org/1999/xlink" x="0px" y="0px"
	 viewBox="0 0 100 100" enable-background="new 0 0 100 100" xml:space="preserve">
<path fill="#212121" d="M83.3,76.6L98.7,92c1.4,1.3,1.4,3.6,0,5c-1.4,1.4-3.7,1.5-5,0L78.2,81.6c-3,2.5-6.4,4.6-10,6.1
	c-4.6,1.9-9.7,3-15,3c-11.4,0-22.3-5.1-29.7-13.8c-3.7-4.4,1.9-8.5,6.2-3.8c6.1,6.6,14.6,10.4,23.5,10.4c4.4,0,8.5-0.9,12.2-2.4
	c3.9-1.6,7.4-3.9,10.3-6.9l0.1-0.1l0,0c2.9-3,5.3-6.5,6.9-10.4c1.5-3.7,2.4-7.8,2.4-12.2c0-4.2-0.8-8.3-2.3-12l0-0.2
	c-1.6-3.8-3.9-7.3-6.8-10.2L75.8,29c-3-2.9-6.5-5.3-10.4-6.9c-3.7-1.6-7.9-2.4-12.2-2.4c-13,0-24.2,7.9-29.1,19.1
	c-0.6,1.3-1.8,2.1-3.3,2.1h0c-1.3,0-2.3-0.6-3-1.6c-0.7-1-0.8-2.3-0.3-3.4c6.2-13.8,20.2-23.3,35.7-23.3c5.3,0,10.3,1.1,15,3l0,0
	c4.8,2,9.1,4.9,12.7,8.4l0.2,0.2c3.5,3.6,6.3,7.8,8.3,12.5l0.1,0.2c1.9,4.6,2.9,9.5,2.9,14.8c0,5.3-1.1,10.3-3,14.9
	C87.8,70.1,85.8,73.5,83.3,76.6L83.3,76.6z M3,61.6L3,61.6c-1.2,0-2.1-0.9-2.1-2.2c0-1.2,0.9-2.2,2.1-2.2h15.8l9.5-15.9
	c0.6-1,1.9-1.4,3-0.8c0.3,0.2,0.5,0.4,0.7,0.7L41.2,56l4.6-4.8c0.8-0.8,2.2-0.9,3.1,0c0.2,0.2,0.4,0.4,0.5,0.7l5.3,10.8l6.6-27.9
	c0.3-1.2,1.4-1.9,2.6-1.6c0.4,0.1,0.7,0.3,1,0.6l9.7,9.9c0.8,0.8,0.8,2.2,0,3.1c-0.8,0.8-2.2,0.8-3.1-0.1l-7-7.1l-7.1,29.9
	c-0.1,0.6-0.6,1.2-1.1,1.4c-1.1,0.6-2.3,0.2-2.8-0.9l-6.6-13.4l-4.3,4.5c-0.2,0.2-0.3,0.3-0.5,0.4c-1,0.6-2.3,0.3-3-0.7l-8.8-14.1
	L22,60.4c-0.4,0.7-1.1,1.1-1.9,1.1H3L3,61.6z"/>
</svg>
